<svg width="24" height="24" viewBox="0 0 24 24" fill="none" xmlns="http://www.w3.org/2000/svg">
<path fill-rule="evenodd" clip-rule="evenodd" d="M6 3C4.34315 3 3 4.34315 3 6V14C3 15.6569 4.34315 17 6 17H7V18C7 19.6569 8.34315 21 10 21H18C19.6569 21 21 19.6569 21 18V10C21 8.34315 19.6569 7 18 7H17V6C17 4.34315 15.6569 3 14 3H6ZM17 9V14C17 15.6569 15.6569 17 14 17H9V18C9 18.5523 9.44772 19 10 19H18C18.5523 19 19 18.5523 19 18V10C19 9.44772 18.5523 9 18 9H17ZM5 6C5 5.44772 5.44772 5 6 5H14C14.5523 5 15 5.44772 15 6V14C15 14.5523 14.5523 15 14 15H6C5.44772 15 5 14.5523 5 14V6Z" fill="currentColor"/>
</svg>
